HIERARCHY
ROOT Hips
{
	OFFSET 0.000000 0.000000 0.000000
	CHANNELS 6 Xposition Yposition Zposition Zrotation Yrotation Xrotation 
	JOINT LHipJoint
	{
		OFFSET 0.000000 0.000000 0.000000
		CHANNELS 3 Zrotation Yrotation Xrotation
		JOINT LeftUpLeg
		{
			OFFSET 1.363060 -1.794630 0.839290
			CHANNELS 3 Zrotation Yrotation Xrotation
			JOINT LeftLeg
			{
				OFFSET 2.448110 -6.726130 0.000000
				CHANNELS 3 Zrotation Yrotation Xrotation
				JOINT LeftFoot
				{
					OFFSET 2.562200 -7.039590 0.000000
					CHANNELS 3 Zrotation Yrotation Xrotation
					JOINT LeftToeBase
					{
						OFFSET 0.157640 -0.433110 2.322550
						CHANNELS 3 Zrotation Yrotation Xrotation
						End Site
						{
							OFFSET 0.000000 0.000000 0.000000
						}
					}
				}
			}
		}
	}
	JOINT RHipJoint
	{
		OFFSET 0.000000 0.000000 0.000000
		CHANNELS 3 Zrotation Yrotation Xrotation
		JOINT RightUpLeg
		{
			OFFSET -1.305520 -1.794630 0.839290
			CHANNELS 3 Zrotation Yrotation Xrotation
			JOINT RightLeg
			{
				OFFSET -2.542530 -6.985550 0.000000
				CHANNELS 3 Zrotation Yrotation Xrotation
				JOINT RightFoot
				{
					OFFSET -2.568260 -7.056230 0.000000
					CHANNELS 3 Zrotation Yrotation Xrotation
					JOINT RightToeBase
					{
						OFFSET -0.164730 -0.452590 2.363150
						CHANNELS 3 Zrotation Yrotation Xrotation
						End Site
						{
							OFFSET 0.000000 0.000000 0.000000
						}
					}
				}
			}
		}
	}
	JOINT LowerBack
	{
		OFFSET 0.000000 0.000000 0.000000
		CHANNELS 3 Zrotation Yrotation Xrotation
		JOINT Spine
		{
			OFFSET 0.028270 2.035590 -0.193380
			CHANNELS 3 Zrotation Yrotation Xrotation
			JOINT Spine1
			{
				OFFSET 0.056720 2.048850 -0.042750
				CHANNELS 3 Zrotation Yrotation Xrotation
				JOINT Neck
				{
					OFFSET 0.000000 0.000000 0.000000
					CHANNELS 3 Zrotation Yrotation Xrotation
					JOINT Neck1
					{
						OFFSET -0.054170 1.746240 0.172020
						CHANNELS 3 Zrotation Yrotation Xrotation
						JOINT Head
						{
							OFFSET 0.104070 1.761360 -0.123970
							CHANNELS 3 Zrotation Yrotation Xrotation
							End Site
							{
								OFFSET 0.000000 0.000000 0.000000
							}
						}
					}
				}
				JOINT LeftShoulder
				{
					OFFSET 0.000000 0.000000 0.000000
					CHANNELS 3 Zrotation Yrotation Xrotation
					JOINT LeftArm
					{
						OFFSET 3.362410 1.200890 -0.311210
						CHANNELS 3 Zrotation Yrotation Xrotation
						JOINT LeftForeArm
						{
							OFFSET 4.983000 -0.000000 -0.000000
							CHANNELS 3 Zrotation Yrotation Xrotation
							JOINT LeftHand
							{
								OFFSET 3.483560 -0.000000 -0.000000
								CHANNELS 3 Zrotation Yrotation Xrotation
								JOINT LeftFingerBase
								{
									OFFSET 0.000000 0.000000 0.000000
									CHANNELS 3 Zrotation Yrotation Xrotation
									JOINT LeftHandIndex1
									{
										OFFSET 0.715260 -0.000000 -0.000000
										CHANNELS 3 Zrotation Yrotation Xrotation
										End Site
										{
											OFFSET 0.000000 0.000000 0.000000
										}
									}
								}
								JOINT LThumb
								{
									OFFSET 0.000000 0.000000 0.000000
									CHANNELS 3 Zrotation Yrotation Xrotation
									End Site
									{
										OFFSET 0.000000 0.000000 0.000000
									}
								}
							}
						}
					}
				}
				JOINT RightShoulder
				{
					OFFSET 0.000000 0.000000 0.000000
					CHANNELS 3 Zrotation Yrotation Xrotation
					JOINT RightArm
					{
						OFFSET -3.136600 1.374050 -0.404650
						CHANNELS 3 Zrotation Yrotation Xrotation
						JOINT RightForeArm
						{
							OFFSET -5.241900 -0.000000 -0.000000
							CHANNELS 3 Zrotation Yrotation Xrotation
							JOINT RightHand
							{
								OFFSET -3.444170 -0.000000 -0.000000
								CHANNELS 3 Zrotation Yrotation Xrotation
								JOINT RightFingerBase
								{
									OFFSET 0.000000 0.000000 0.000000
									CHANNELS 3 Zrotation Yrotation Xrotation
									JOINT RightHandIndex1
									{
										OFFSET -0.622530 -0.000000 -0.000000
										CHANNELS 3 Zrotation Yrotation Xrotation
										End Site
										{
											OFFSET 0.000000 0.000000 0.000000
										}
									}
								}
								JOINT RThumb
								{
									OFFSET 0.000000 0.000000 0.000000
									CHANNELS 3 Zrotation Yrotation Xrotation
									End Site
									{
										OFFSET 0.000000 0.000000 0.000000
									}
								}
							}
						}
					}
				}
			}
		}
	}
}
MOTION
Frames: 10
Frame Time: 0.008333
3.000708 17.168304 -0.132858 -179.155732 -71.301774 -174.335267 -11.681290 2.259233 -0.792975 -1.476341 25.654978 -10.013474 -1.524559 -0.500954 8.415967 2.932863 21.465518 -1.488834 2.491300 -0.000000 -42.026400 9.134438 -2.132518 5.220922 2.918554 11.068668 -16.126802 1.529821 -0.690130 20.279897 -0.974984 -3.800333 -5.190401 -0.482600 0.000000 -63.007200 -4.444322 -1.509408 -7.450551 -1.307433 -1.405828 -3.545324 -4.658187 -1.480509 2.954312 11.034139 -20.360960 -8.734576 -1.082385 -0.073840 -0.197005 0.000000 0.000000 0.000000 10.144104 17.992724 0.191404 -38.585753 11.174961 -14.570690 -179.323029 -77.286623 -179.984530 -2.396275 -3.946849 0.092985 0.035897 0.402310 -0.000000 0.000000 0.000000 0.000000 0.000000 0.000000 0.000000 6.375107 -14.541994 -2.503893 32.417576 27.529606 -0.800630 -179.673866 69.991268 179.915432 -9.188143 9.705197 -0.849600 0.133136 -0.689554 -0.000000 0.000000 0.000000 0.000000 0.000000 0.000000 0.000000 
2.979596 17.171312 -0.128853 -178.762110 -69.549498 -174.685360 -11.735947 2.338520 -0.909326 -1.344728 26.869649 -9.686658 -1.567217 -0.523452 8.003896 2.965966 21.854641 -1.335774 2.591501 -0.000000 -41.962701 9.083547 -2.174080 5.505236 2.848277 11.831708 -16.352417 1.603451 -0.657433 19.908905 -0.794383 -2.900664 -4.790091 -0.444300 0.000001 -63.665800 -3.973815 -1.508681 -7.737287 -1.188808 -1.453707 -3.600650 -4.614121 -1.531811 2.972264 11.173572 -20.464000 -8.890351 -1.030926 -0.067485 -0.235650 0.000000 0.000000 0.000000 9.807125 18.215468 0.313213 -38.301990 11.412108 -14.689264 -179.338925 -78.376974 -179.984076 -2.419722 -3.944093 0.093453 0.028933 0.394555 -0.000000 0.000000 0.000000 0.000000 0.000000 0.000000 0.000000 6.462398 -14.620254 -2.478536 32.122011 27.945545 -0.636052 -179.672763 69.867429 179.914558 -9.248378 9.750024 -0.859314 0.134883 -0.693078 -0.000000 0.000000 0.000000 0.000000 0.000000 0.000000 0.000000 
2.956827 17.174879 -0.124568 -178.418182 -67.793905 -174.972773 -11.797198 2.422325 -1.011882 -1.217964 28.077911 -9.369262 -1.611989 -0.549517 7.561324 2.996749 22.241296 -1.160233 2.702699 0.000000 -41.895900 9.026781 -2.221466 5.790505 2.779679 12.533430 -16.579974 1.685530 -0.618650 19.469613 -0.604983 -1.947624 -4.343304 -0.395100 0.000000 -64.416600 -3.468969 -1.510882 -8.034103 -1.062931 -1.508351 -3.658175 -4.570781 -1.589307 2.987475 11.311054 -20.563538 -9.039095 -0.978136 -0.061069 -0.272643 0.000000 0.000000 0.000000 9.492787 18.405750 0.440451 -37.877801 11.531244 -14.687277 -179.363762 -79.615637 -179.983552 -2.461050 -3.912755 0.093918 0.022190 0.385982 0.000000 0.000000 0.000000 0.000000 0.000000 0.000000 0.000000 6.547675 -14.709888 -2.450430 31.782135 28.344751 -0.505742 -179.670524 69.728627 179.913644 -9.312119 9.785588 -0.868531 0.136628 -0.696364 -0.000000 0.000000 0.000000 0.000000 0.000000 0.000000 0.000000 
2.932604 17.178946 -0.120143 -178.114861 -66.050666 -175.203886 -11.865476 2.508564 -1.098891 -1.100341 29.268332 -9.074602 -1.658639 -0.579038 7.102161 3.025183 22.621581 -0.970705 2.821500 0.000000 -41.815500 8.962656 -2.275307 6.077809 2.713962 13.179546 -16.813475 1.774950 -0.574319 18.968811 -0.410536 -0.956946 -3.854161 -0.333700 -0.000000 -65.234300 -2.937906 -1.510596 -8.344583 -0.931786 -1.563775 -3.720034 -4.526592 -1.647174 2.995793 11.448472 -20.677240 -9.175140 -0.924535 -0.054743 -0.306406 0.000000 0.000000 0.000000 9.229685 18.505402 0.569574 -37.338075 11.570589 -14.584074 -179.397764 -80.973622 -179.982922 -2.536025 -3.841799 0.094777 0.016304 0.376628 -0.000000 0.000000 0.000000 0.000000 0.000000 0.000000 0.000000 6.630617 -14.826177 -2.415474 31.396209 28.713072 -0.417238 -179.668604 69.572207 179.912718 -9.381571 9.807543 -0.877248 0.138669 -0.699362 -0.000000 0.000000 0.000000 0.000000 0.000000 0.000000 0.000000 
2.907570 17.183465 -0.115510 -177.850608 -64.325422 -175.391497 -11.941599 2.597915 -1.175597 -0.987196 30.441171 -8.786109 -1.706951 -0.610092 6.623766 3.050314 22.990994 -0.760696 2.949700 0.000000 -41.738900 8.891917 -2.332097 6.357983 2.653899 13.762134 -17.030935 1.871346 -0.524517 18.407496 -0.212256 0.068682 -3.326052 -0.257699 0.000000 -66.121000 -2.384244 -1.514674 -8.651049 -0.795280 -1.626076 -3.781916 -4.480755 -1.711342 2.999168 11.583494 -20.780906 -9.297138 -0.871581 -0.048615 -0.336829 0.000000 0.000000 0.000000 9.017109 18.542751 0.703142 -36.682724 11.512378 -14.398609 -179.439771 -82.425125 -179.982208 -2.641568 -3.724574 0.095628 0.011155 0.366846 -0.000000 0.000000 0.000000 0.000000 0.000000 0.000000 0.000000 6.709419 -14.947580 -2.379206 30.964892 29.053719 -0.375201 -179.664570 69.398955 179.911695 -9.463961 9.811836 -0.885768 0.140976 -0.701928 -0.000000 0.000000 0.000000 0.000000 0.000000 0.000000 0.000000 
2.881925 17.188399 -0.110729 -177.612005 -62.637083 -175.544317 -12.025246 2.687128 -1.242255 -0.879216 31.591086 -8.522897 -1.757701 -0.641997 6.147686 3.070960 23.335569 -0.544113 3.079400 -0.000000 -41.645300 8.812912 -2.392034 6.633962 2.602278 14.300010 -17.234783 1.972830 -0.469737 17.793176 -0.016135 1.098668 -2.765564 -0.167800 -0.000001 -67.027800 -1.816522 -1.517873 -8.957018 -0.655281 -1.689329 -3.846119 -4.431099 -1.776163 2.993056 11.719104 -20.901120 -9.401742 -0.819325 -0.042773 -0.362890 0.000000 0.000000 0.000000 8.881197 18.451217 0.836987 -35.948953 11.418165 -14.174431 -179.488145 -83.917104 -179.981418 -2.784222 -3.553518 0.096168 0.007203 0.356895 -0.000000 0.000000 0.000000 0.000000 0.000000 0.000000 0.000000 6.784417 -15.096737 -2.336187 30.488723 29.359152 -0.386178 -179.660891 69.212089 179.910629 -9.559082 9.799884 -0.893986 0.143862 -0.704147 -0.000000 0.000000 0.000000 0.000000 0.000000 0.000000 0.000000 
2.856371 17.193733 -0.105565 -177.401063 -60.993857 -175.671444 -12.116031 2.777240 -1.302679 -0.772670 32.703992 -8.262624 -1.808814 -0.673089 5.662877 3.088326 23.663786 -0.310684 3.216300 -0.000001 -41.562200 8.727745 -2.450312 6.895395 2.560819 14.785547 -17.402653 2.078591 -0.409946 17.127354 0.176401 2.127134 -2.177362 -0.063000 -0.000000 -67.954001 -1.239027 -1.531061 -9.244109 -0.511485 -1.763439 -3.907847 -4.376933 -1.851457 2.980433 11.853081 -21.011840 -9.490457 -0.769531 -0.037306 -0.385194 0.000000 0.000000 0.000000 8.811690 18.271754 0.973570 -35.136545 11.278953 -13.941860 -179.540196 -85.406866 -179.980633 -2.943455 -3.331420 0.095600 0.003984 0.347388 -0.000000 0.000000 0.000000 0.000000 0.000000 0.000000 0.000000 6.857414 -15.250388 -2.292544 29.968398 29.642484 -0.451350 -179.655186 69.020870 179.909431 -9.672737 9.772677 -0.902605 0.147213 -0.705930 -0.000000 0.000000 0.000000 0.000000 0.000000 0.000000 0.000000 
2.831014 17.199480 -0.100019 -177.202669 -59.414664 -175.780351 -12.212793 2.864708 -1.359080 -0.666242 33.786807 -8.031763 -1.862980 -0.702121 5.198929 3.099554 23.948671 -0.079601 3.347300 -0.000000 -41.462700 8.634799 -2.506972 7.148322 2.531128 15.249765 -17.538181 2.186146 -0.345353 16.417344 0.358337 3.111512 -1.570541 0.052500 0.000000 -68.836200 -0.659658 -1.550703 -9.517488 -0.365585 -1.844267 -3.969501 -4.316831 -1.933386 2.957542 11.988586 -21.142733 -9.562666 -0.721985 -0.032236 -0.403404 0.000000 0.000000 0.000000 8.828132 17.946704 1.107900 -34.278503 11.162407 -13.743614 -179.592776 -86.831152 -179.979906 -3.109511 -3.057681 0.093222 0.001655 0.338723 -0.000000 0.000000 0.000000 0.000000 0.000000 0.000000 0.000000 6.931085 -15.434418 -2.242720 29.407001 29.906921 -0.571988 -179.650439 68.834139 179.908187 -9.800439 9.737514 -0.911823 0.151220 -0.707483 -0.000000 0.000000 0.000000 0.000000 0.000000 0.000000 0.000000 
2.806382 17.205604 -0.093828 -177.021155 -57.906940 -175.875341 -12.314314 2.951482 -1.412305 -0.559457 34.811600 -7.802904 -1.916091 -0.728292 4.732923 3.108222 24.214037 0.164235 3.483101 0.000000 -41.381000 8.537424 -2.557042 7.382425 2.512415 15.682197 -17.622171 2.294594 -0.275778 15.664469 0.529282 4.047758 -0.949385 0.178199 -0.000000 -69.679300 -0.082232 -1.589967 -9.761590 -0.217198 -1.944025 -4.026473 -4.251072 -2.034085 2.928776 12.122571 -21.266386 -9.622302 -0.678265 -0.027600 -0.418712 0.000000 0.000000 0.000000 8.912195 17.534624 1.241856 -33.362834 11.051062 -13.595675 -179.642842 -88.151074 -179.979341 -3.248074 -2.746887 0.088239 -0.000462 0.331613 -0.000000 0.000000 0.000000 0.000000 0.000000 0.000000 0.000000 7.008656 -15.625383 -2.193544 28.806599 30.173838 -0.743833 -179.644116 68.663919 179.906827 -9.944735 9.699014 -0.922244 0.155624 -0.708783 -0.000000 0.000000 0.000000 0.000000 0.000000 0.000000 0.000000 
2.782473 17.212084 -0.087069 -176.843213 -56.487234 -175.959514 -12.418647 3.033972 -1.465795 -0.451868 35.801112 -7.613686 -1.973413 -0.750018 4.304153 3.109449 24.418269 0.395892 3.604100 0.000000 -41.288300 8.433964 -2.601186 7.607925 2.502373 16.122055 -17.665429 2.401271 -0.201229 14.876287 0.682639 4.887631 -0.325229 0.306400 0.000000 -70.416400 0.486137 -1.645326 -9.985960 -0.068204 -2.058808 -4.081751 -4.179889 -2.149892 2.891414 12.258163 -21.413538 -9.670647 -0.637880 -0.023361 -0.431261 0.000000 0.000000 0.000000 9.078300 16.990748 1.369782 -32.405901 10.996961 -13.516368 -179.687459 -89.318152 -179.978997 -3.341209 -2.409242 0.080751 -0.002341 0.326456 -0.000000 0.000000 0.000000 0.000000 0.000000 0.000000 0.000000 7.095188 -15.851140 -2.139579 28.173126 30.449999 -0.962332 -179.639421 68.521567 179.905454 -10.097373 9.666356 -0.933865 0.160480 -0.710054 -0.000000 0.000000 0.000000 0.000000 0.000000 0.000000 0.000000 
